# xmcd
#
# Track frame offsets: 
#        150
#        23307
#        43600
#        61155
#        77541
#        94877
#        115369
#        130226
#        146586
#        168436
#
# Disc length: 2560 seconds
#
# Revision: 0
# Processed by: cddbd v1.5.2PL0 Copyright (c) Steve Scherf et al.
# Submitted via: ExactAudioCopy v0.95b4
#
DISCID=7909fe0a
DTITLE=Kevin Welch - A Patch Of Blue Sky
DYEAR=2010
DGENRE=Country
TTITLE0=Come A Rain
TTITLE1=The Great Emancipation
TTITLE2=Andaman Sea
TTITLE3=Marysville
TTITLE4=New Widow's Dream
TTITLE5=Midnight And Noon
TTITLE6=Longgone Dream
TTITLE7=Answer Me That
TTITLE8=That's How It Feels
TTITLE9=A Patch Of Blue Sky
EXTD=
EXTT0=
EXTT1=
EXTT2=
EXTT3=
EXTT4=
EXTT5=
EXTT6=
EXTT7=
EXTT8=
EXTT9=
PLAYORDER=
